<svg version="1.2" xmlns="http://www.w3.org/2000/svg" viewBox="0 0 954 298" width="954" height="298">
	<title>ANSHARLOGO</title>
	<style>
		.s0 { fill: #ff2400 } 
	</style>
	<path id="Anshar" class="s0" aria-label="Anshar"  d="m143.1 221h14.5 14.5v-14.5-14.5-14.5-14.5-14.6-14.5-14.5-14.5-14.5-14.5h-14.5-14.5-14.5-14.6-14.5-14.5-14.5-14.5v14.5 14.5 14.5 14.5 14.5 14.6 14.5 14.5 14.5 14.5h14.5 14.5v-14.5-14.5h14.5 14.5 14.6 14.5v14.5zm0-58.1h-14.5-14.6-14.5-14.5v-14.5-14.5-14.5-14.5h14.5 14.5 14.6 14.5v14.5 14.5 14.5zm145.1 58.1h14.5 14.5v-14.5-14.5-14.6-14.5-14.5-14.5-14.5-14.5-14.5-14.5h-14.5-14.5-14.5-14.5-14.5-14.6-14.5-14.5v14.5 14.5 14.5 14.5 14.5 14.5 14.5 14.6 14.5 14.5h14.5 14.5v-14.5-14.5-14.6-14.5-14.5-14.5-14.5-14.5h14.6 14.5 14.5 14.5v14.5 14.5 14.5 14.5 14.5 14.6 14.5zm145.1 0h14.5 14.5v-14.5-14.6-14.5-14.5-14.5-14.5h-14.5-14.5-14.5-14.5-14.5-14.5v-14.5-14.5h14.5 14.5 14.5 14.5 14.5 14.5v-14.5-14.6h-14.5-14.5-14.5-14.5-14.5-14.5-14.6-14.5v14.6 14.5 14.5 14.5 14.5 14.5h14.5 14.6 14.5 14.5 14.5 14.5v14.5 14.5h-14.5-14.5-14.5-14.5-14.6-14.5v14.6 14.5h14.5 14.6 14.5 14.5 14.5zm145.1 0h14.5 14.5v-14.5-14.6-14.5-14.5-14.5-14.5-14.5-14.5-14.5-14.6h-14.5-14.5v14.6 14.5 14.5 14.5h-14.5-14.5-14.5-14.5v-14.5-14.5-14.5-14.6h-14.6-14.5v14.6 14.5 14.5 14.5 14.5 14.5 14.5 14.5 14.6 14.5h14.5 14.6v-14.5-14.6-14.5-14.5h14.5 14.5 14.5 14.5v14.5 14.5 14.6zm145.1 0h14.5 14.5v-14.6-14.5-14.5-14.5-14.5-14.5-14.5-14.5-14.6-14.5h-14.5-14.5-14.5-14.5-14.5-14.5-14.5-14.5v14.5 14.6 14.5 14.5 14.5 14.5 14.5 14.5 14.5 14.6h14.5 14.5v-14.6-14.5-14.5-14.5h14.5 14.5 14.5 14.5v14.5 14.5 14.5zm0-87h-14.5-14.5-14.5-14.5v-14.5-14.6h14.5 14.5 14.5 14.5v14.6zm145.1 87h14.5 14.6v-14.5-14.5h-14.6-14.5v-14.5-14.5h14.5 14.6v-14.5-14.5-14.6-14.5-14.5-14.5h-14.6-14.5-14.5-14.5-14.5-14.5-14.5-14.5v14.5 14.5 14.5 14.6 14.5 14.5 14.5 14.5 14.5 14.5h14.5 14.5v-14.5-14.5-14.5-14.5h14.5 14.5v14.5 14.5 14.5 14.5h14.5zm0-87h-14.5-14.5-14.5-14.5v-14.6-14.5h14.5 14.5 14.5 14.5v14.5z"/>
</svg>